<svg xmlns:inkscape="http://www.inkscape.org/namespaces/inkscape" xmlns:sodipodi="http://sodipodi.sourceforge.net/DTD/sodipodi-0.dtd" xmlns="http://www.w3.org/2000/svg" xmlns:svg="http://www.w3.org/2000/svg" version="1.1" viewBox="0 0 3999.709 3264.37525" x="0px" y="0px"><g transform="translate(-446.23656,-1826.7321)"><path style="" d="m 2409.7366,4435.5235 c -27.1323,-4.7695 -56.7374,-16.6316 -79.4317,-31.8265 -45.3335,-30.3531 -75.976,-74.5176 -88.5058,-127.562 -4.0043,-16.9519 -5.0545,-27.1486 -4.9953,-48.5 0.058,-20.9431 1.9109,-35.9396 6.4754,-52.4111 2.4724,-8.922 2.4165,-10.0547 -0.1646,-3.3389 -1.1098,2.8875 -2.3656,5.25 -2.7907,5.25 -0.8119,0 -17.1986,-6.1898 -239.5873,-90.501 -75.9,-28.775 -246.675,-93.499 -379.5,-143.8312 -277.2186,-105.0482 -278.0178,-105.3522 -278.7225,-106.057 -0.2903,-0.2903 0.2035,-2.3556 1.0973,-4.5895 2.7108,-6.775 1.8359,-5.9388 -2.4065,2.3001 -9.8344,19.099 -20.7732,34.328 -35.9282,50.0193 -38.328,39.6844 -86.7297,61.5122 -142.531,64.2774 -30.5109,1.5119 -65.7605,-5.3613 -95.5091,-18.623 -33.1735,-14.7886 -64.5358,-41.1619 -86.20884,-72.4951 -45.31243,-65.5094 -48.75706,-154.2281 -8.6684,-223.2593 16.6569,-28.6825 42.82794,-55.9547 69.56834,-72.4956 50.8754,-31.4703 108.671,-40.4032 165.7017,-25.6108 18.7203,4.8556 36.414,12.0666 52.1072,21.2364 5.835,3.4094 7.0792,3.8974 4.5975,1.8032 -2.2869,-1.9298 -3.135,-3.3042 -2.5867,-4.1913 0.4487,-0.726 35.9202,-47.9316 78.8256,-104.9013 42.9054,-56.9697 102.5548,-136.2063 132.5542,-176.0813 29.9994,-39.875 59.6195,-79.1838 65.8224,-87.3529 6.4854,-8.5412 10.9796,-15.3403 10.5758,-16 -0.713,-1.1649 -14.2299,-17.7325 -185.2709,-227.0842 l -96.3549,-117.9371 4.4185,-3.8861 c 4.0247,-3.5398 3.6476,-3.3947 -4.2323,1.6289 -10.7096,6.8278 -28.4315,15.7742 -39.966,20.176 -10.9431,4.176 -33.4358,9.8426 -45.8832,11.5593 -12.3203,1.6991 -43.8596,1.7202 -56,0.037 -64.7801,-8.9795 -122.1318,-47.679 -154.33444,-104.1412 -45.50005,-79.7769 -33.40888,-181.7325 29.33444,-247.3549 27.2694,-28.5206 55.8841,-46.3502 92.5141,-57.6448 28.3731,-8.7485 61.6983,-11.1016 91.9859,-6.4952 58.8989,8.958 110.5555,42.0164 143.6768,91.948 6.1523,9.2748 8.5464,11.7799 5.3491,5.597 l -1.6216,-3.1358 10.2979,-4.8357 c 18.0854,-8.4929 873.9028,-416.1893 884.7131,-421.4619 4.0784,-1.9892 7.7537,-3.6167 8.1673,-3.6167 0.4136,0 1.5292,2.035 2.4791,4.5223 0.9499,2.4873 1.9036,4.3458 2.1193,4.13 0.2158,-0.2157 -0.5641,-2.8133 -1.733,-5.7723 -3.7257,-9.4311 -8.8958,-31.5369 -10.5654,-45.1743 -2.0045,-16.3734 -1.4493,-46.4044 1.1222,-60.7057 3.9506,-21.9703 9.7792,-39.6009 19.6268,-59.3682 20.3387,-40.8263 53.7736,-73.8955 95.1251,-94.0847 16.8871,-8.2449 33.3033,-13.8332 52.2433,-17.7843 14.3969,-3.0034 15.9851,-3.1307 39.5,-3.1641 27.1894,-0.039 33.6619,0.7606 56,6.9157 24.5643,6.7685 45.7404,16.7556 65.5,30.8912 48.0502,34.374 78.75,84.7616 86.9987,142.7908 1.9188,13.4986 1.9229,42.5104 0.01,57.0024 -1.6498,12.4858 -5.9699,30.5334 -9.8777,41.2645 -2.9877,8.2045 -2.8293,9.754 0.2625,2.5671 1.1902,-2.7667 2.4279,-5.0304 2.7505,-5.0304 0.3226,0 22.0226,10.0753 48.2222,22.3895 26.1996,12.3142 110.6357,51.9644 187.6357,88.1116 136.3401,64.0041 174.1076,81.7358 483,226.7669 81.4,38.2189 159.6999,74.966 173.9997,81.6602 14.2999,6.6942 26.3738,12.5453 26.831,13.0025 0.4573,0.4573 -0.1051,2.667 -1.2497,4.9105 -3.619,7.0939 -2.2688,5.7641 3.4912,-3.4386 8.176,-13.0626 15.6279,-22.5054 27.4278,-34.7557 32.5213,-33.7624 73.6086,-55.1014 120,-62.3227 17.2275,-2.6816 49.3811,-2.4159 65.5,0.5413 35.3232,6.4804 65.6866,19.6005 92.4706,39.9567 9.5759,7.2778 26.4491,23.4892 34.5033,33.1498 25.8997,31.0655 43.596,73.2845 47.4499,113.2035 l 0.8037,8.3245 0.1362,-6.2475 0.1363,-6.2476 198.6518,-0.2524 198.6518,-0.2525 -21.8643,-16.5 c -19.3269,-14.5851 -22.1546,-17.0803 -24.3661,-21.5 -3.2411,-6.4777 -3.5093,-16.1123 -0.611,-21.957 6.2579,-12.6201 21.6142,-17.8749 33.7503,-11.5492 7.1952,3.7503 107.235,79.7291 109.4986,83.1625 3.4976,5.3054 4.8625,12.8469 3.4401,19.0089 -0.6557,2.8408 -2.1476,6.7109 -3.3152,8.6001 -1.4036,2.2712 -19.7063,16.6276 -54.017,42.3705 -28.5417,21.4145 -53.617,39.8334 -55.7228,40.9311 -9.4754,4.9388 -21.1116,2.9923 -28.7496,-4.8093 -8.5188,-8.7013 -9.5772,-21.2996 -2.6449,-31.4828 1.4868,-2.184 11.2505,-10.2518 23.5991,-19.5 l 21.0631,-15.7748 -198.682,-0.2525 -198.6819,-0.2524 -0.1351,-6.2476 c -0.1313,-6.0676 -0.1596,-5.9946 -0.9815,2.5354 -3.1101,32.2755 -15.8854,67.851 -34.1928,95.2171 -15.0651,22.5195 -38.3397,45.3622 -61.1906,60.0549 -11.0223,7.0871 -34.1901,18.3701 -45,21.9155 -11.9126,3.907 -29.8274,8.2443 -40,9.6842 -11.7823,1.6677 -44.4533,1.6612 -56.5,-0.011 -12.1438,-1.686 -26.9297,-5.1494 -39,-9.1353 -12.0384,-3.9754 -34.8137,-14.9518 -46.5,-22.4104 -7.9671,-5.0848 -8.4932,-5.2984 -4.5846,-1.8606 l 4.4154,3.8835 -57.9483,70.9397 c -31.8716,39.0169 -96.0929,117.635 -142.7139,174.7068 -54.2876,66.457 -84.4975,104.2104 -84.0201,105 0.41,0.6782 31.346,41.283 68.7467,90.233 73.1665,95.7601 96.4164,126.2061 171.4383,224.5 26.6562,34.925 48.9201,64.0824 49.4754,64.7943 0.7241,0.9283 0.4697,1.6733 -0.8997,2.6343 -5.8897,4.1336 -5.9712,5.087 -0.1372,1.6064 43.5138,-25.9613 92.8252,-35.8848 141.5739,-28.4906 58.5878,8.8867 112.0211,43.5165 144.6106,93.7214 7.4988,11.5522 18.4361,34.5087 22.9803,48.2342 4.1958,12.6732 8.2237,31.5269 9.4466,44.2171 0.8219,8.53 0.8502,8.603 0.9815,2.5354 l 0.1351,-6.2476 198.6819,-0.2524 198.682,-0.2525 -20.949,-15.6893 c -11.522,-8.6291 -21.9268,-17.0118 -23.1218,-18.6281 -1.195,-1.6164 -2.9332,-5.2639 -3.8627,-8.1056 -6.6509,-20.334 15.7048,-39.0269 34.7821,-29.0832 7.1952,3.7503 107.235,79.7291 109.4986,83.1625 3.4976,5.3054 4.8625,12.8469 3.4401,19.0089 -0.6557,2.8408 -2.1476,6.7109 -3.3152,8.6001 -2.2219,3.5952 -101.9891,79.2527 -110.1235,83.5112 -5.971,3.1259 -15.506,3.0509 -22.0222,-0.1731 -13.0521,-6.4579 -17.4552,-24.167 -9.0325,-36.3286 1.4751,-2.1301 11.5996,-10.4804 23.643,-19.5 l 21.0631,-15.7748 -198.682,-0.2525 -198.6819,-0.2524 -0.1351,-6.2476 c -0.1313,-6.0676 -0.1596,-5.9946 -0.9815,2.5354 -1.943,20.1636 -8.7799,45.6623 -17.3072,64.5482 -16.3984,36.319 -44.63,69.1835 -77.7316,90.488 -60.1007,38.6812 -134.759,44.1366 -200.8446,14.676 -39.7669,-17.7278 -75.2045,-50.65 -97.0808,-90.1895 -5.008,-9.0515 -7.5292,-12.4334 -4.7942,-6.4306 0.6599,1.4484 0.9444,2.8889 0.6322,3.2011 -0.6662,0.6662 -28.0755,11.1553 -138.2572,52.9088 -44.55,16.8823 -215.775,81.7723 -380.5,144.2001 -335.2243,127.0439 -375.7918,142.3891 -378.1467,143.0394 -1.2268,0.3389 -2.1697,-0.9068 -3.6979,-4.8848 -2.613,-6.8022 -2.6798,-5.7066 -0.198,3.2493 1.0766,3.8849 2.958,12.7667 4.1809,19.7373 2.929,16.6945 3.2117,47.9974 0.5842,64.6738 -8.1131,51.4916 -33.4275,96.6846 -72.7225,129.8292 -29.1036,24.5483 -63.6346,40.2778 -102.5,46.6904 -18.2076,3.0042 -49.9722,2.7137 -69,-0.6311 z M 2270.5129,4114.135 c 8.1173,-12.0987 11.8518,-16.8616 22.3257,-28.4732 6.5948,-7.3112 8.4695,-9.8335 5.6176,-7.5582 -4.2243,3.3702 -4.3047,3.3895 -6.1315,1.4732 -1.9768,-2.0737 -10.3408,-12.3013 -217.0739,-265.4418 -73.8885,-90.475 -167.6587,-205.2921 -208.3783,-255.149 l -74.0355,-90.649 -5.0502,2.2804 c -5.8912,2.6602 -283.6266,132.4602 -370.0502,172.9434 -32.45,15.2005 -59.9615,27.8841 -61.1367,28.1857 -1.8005,0.4621 -2.4134,-0.1759 -3.8944,-4.0538 -3.1911,-8.3558 -2.4769,-4.1367 1.0999,6.4977 8.158,24.2547 11.7074,53.7771 9.6418,80.1946 -0.9566,12.2337 -3.4511,27.9243 -6.4972,40.8678 -0.1789,0.7602 0.3317,-0.1019 1.1346,-1.9157 1.0495,-2.3708 1.9086,-3.1179 3.0559,-2.6574 4.6289,1.8575 146.4325,55.658 334.5961,126.9462 116.6,44.1754 284,107.6069 372,140.9589 88,33.352 166.75,63.1784 175,66.2808 8.25,3.1025 15.1645,5.7593 15.3656,5.9041 0.2011,0.1448 -0.09,1.5237 -0.6477,3.0643 -0.5573,1.5405 -1.3259,3.701 -1.708,4.801 -0.382,1.1 1.652,-2.275 4.52,-7.5 2.868,-5.225 7.4788,-12.875 10.2464,-17 z m 365.2368,21.6857 c -1.7443,-4.1748 -1.8977,-5.6857 -0.5774,-5.6857 0.7672,0 708.8721,-268.0939 887.5643,-336.0386 l 10,-3.8023 1.773,3.6704 c 0.9752,2.0188 1.529,2.8235 1.2307,1.7883 -2.4246,-8.4143 -5.73,-28.779 -6.7143,-41.3678 -2.0656,-26.4175 1.4838,-55.9399 9.6418,-80.1946 3.5603,-10.5854 4.2962,-14.867 1.1305,-6.5777 -0.9499,2.4873 -2.222,4.5223 -2.8269,4.5223 -0.6049,0 -6.7551,-2.649 -13.6673,-5.8868 -11.8662,-5.5582 -184.6184,-86.34 -349.0506,-163.2218 -40.9657,-19.1539 -74.7746,-34.5026 -75.1309,-34.1083 -0.3563,0.3943 -23.7867,29.0669 -52.0676,63.7169 -28.2808,34.65 -101.7738,124.65 -163.3176,200 -61.5439,75.35 -150.1143,183.8 -196.8231,241 -46.7089,57.2 -85.7558,104.8738 -86.771,105.9418 -1.8214,1.916 -1.9027,1.8968 -6.1263,-1.4509 -3.1533,-2.4993 -2.0345,-0.9041 4.2489,6.0582 15.8341,17.545 25.3903,30.8276 33.965,47.2093 4.6295,8.8444 6.179,10.7939 3.5188,4.4273 z m -47.5131,-62.0633 c 0,-0.2076 -0.7875,-0.9951 -1.75,-1.75 -1.5861,-1.2438 -1.6214,-1.2085 -0.3776,0.3776 1.3064,1.6657 2.1276,2.1955 2.1276,1.3724 z m -23.9504,-19.6149 c -4.1229,-3.6197 -4.3358,-4.0396 -2.894,-5.7073 0.856,-0.9901 27.6287,-33.7502 59.495,-72.8002 31.8662,-39.05 117.2942,-143.675 189.8399,-232.5 72.5457,-88.825 155.9537,-190.975 185.3511,-227 29.3974,-36.025 54.2918,-66.4371 55.321,-67.5825 l 1.8713,-2.0825 -24.767,-11.5746 c -269.8586,-126.1165 -401.6634,-187.8236 -402.0834,-188.2435 -0.182,-0.1821 0.3772,-1.7005 1.2428,-3.3743 3.1843,-6.1578 1.3945,-4.0999 -5.8012,6.6702 -9.9163,14.842 -17.2967,23.6689 -30.2572,36.1872 -37.8877,36.595 -84.4057,56.392 -137.8679,58.6734 -40.7066,1.7371 -82.9359,-9.5558 -118.7148,-31.7466 -24.8777,-15.4296 -48.5857,-38.7362 -64.9742,-63.8741 -6.5597,-10.0619 -8.5395,-12.296 -5.2373,-5.9101 0.8656,1.6738 1.411,3.206 1.2121,3.405 -0.519,0.519 -25.6228,12.3108 -136.7858,64.2514 -54.175,25.3131 -127.975,59.8159 -164,76.6729 -36.025,16.8569 -79.1168,37.0007 -95.7595,44.764 -30.2146,14.0941 -30.2567,14.1181 -28.4146,16.1896 1.0146,1.141 8.8108,10.6245 17.3248,21.0745 8.514,10.45 87.8746,107.65 176.357,216 88.4823,108.35 189.9039,232.55 225.3814,276 35.4774,43.45 66.3127,81.1688 68.5228,83.8195 l 4.0184,4.8195 -3.9652,3.5401 c -2.1808,1.947 -2.8401,2.8169 -1.4651,1.9331 38.0713,-24.47 71.2359,-35.1256 113,-36.3065 18.9272,-0.5351 33.0016,0.6517 50.9999,4.3007 20.3532,4.1264 51.3606,17.1373 68.5001,28.7432 4.4,2.9795 8.225,5.4505 8.5,5.4912 0.275,0.041 -1.5027,-1.6843 -3.9504,-3.8333 z M 1335.7366,3631.135 c -0.9061,-1.7522 -1.4859,-3.3474 -1.2885,-3.5448 0.4138,-0.4138 22.9714,-10.9982 127.7885,-59.9603 41.525,-19.3971 117.8,-55.0505 169.5,-79.2298 51.7,-24.1793 101.5375,-47.4718 110.75,-51.7611 9.2125,-4.2894 16.75,-8.182 16.75,-8.6504 0,-0.4683 -25.2909,-31.7895 -56.2021,-69.6026 -30.9111,-37.813 -70.3525,-86.076 -87.6476,-107.251 -17.2951,-21.175 -31.7895,-38.6368 -32.2098,-38.804 -0.4203,-0.1671 -20.686,26.1579 -45.0347,58.5 -24.3488,32.3422 -87.4539,116.179 -140.2335,186.304 -52.7796,70.125 -96.3184,127.8984 -96.7529,128.3853 -0.4369,0.4896 -2.7183,-0.6027 -5.1047,-2.4442 -2.3731,-1.8312 1.1007,2.2704 7.7195,9.1147 12.4754,12.9004 21.0481,23.6327 28.5581,35.7522 4.4354,7.1579 6.4197,9.0165 3.4077,3.192 z m 2237.2852,-21.5 c 3.0626,-3.85 10.5513,-12.1541 16.6416,-18.4536 6.7795,-7.0124 9.203,-9.9684 6.2501,-7.6232 -2.6596,2.1122 -5.1849,3.4372 -5.6295,2.9537 -0.4435,-0.4823 -20.7381,-26.9769 -45.0992,-58.8769 -24.361,-31.9 -77.8271,-101.875 -118.8135,-155.5 -40.9864,-53.625 -84.5983,-110.6868 -96.9154,-126.8041 -12.317,-16.1173 -22.784,-29.1673 -23.2598,-29 -1.1408,0.401 -172.9595,210.6168 -172.9595,211.6116 0,0.422 23.9625,11.9657 53.25,25.6527 29.2875,13.687 120.525,56.3637 202.75,94.8371 82.225,38.4734 153.7538,71.9369 158.9528,74.3633 5.199,2.4264 9.6197,4.5786 9.8237,4.7826 0.204,0.204 -0.3372,1.7404 -1.2028,3.4142 -3.2597,6.3036 -1.3667,4.2639 4.5348,-4.8863 3.3597,-5.2091 8.6142,-12.6211 11.6767,-16.4711 z m 30.3424,-31.25 c 1.2438,-1.5861 1.2085,-1.6214 -0.3776,-0.3776 -1.6657,1.3064 -2.1955,2.1276 -1.3724,2.1276 0.2076,0 0.9951,-0.7875 1.75,-1.75 z M 1898.7366,3363.6379 c 230.8657,-108.132 345.2955,-161.5029 346.27,-161.5029 0.5855,0 1.8418,2.035 2.7917,4.5223 2.7444,7.1862 2.7575,4.4833 0.015,-3.134 -9.0791,-25.2186 -13.2274,-58.7845 -10.6766,-86.3883 0.9655,-10.4483 4.5421,-31.3975 6.5916,-38.6088 0.2956,-1.0401 -0.1878,-0.3162 -1.0742,1.6088 -0.8864,1.925 -1.7344,3.6289 -1.8844,3.7864 -0.1501,0.1576 -98.6897,-36.9075 -218.9771,-82.3668 -206.7807,-78.1472 -218.7759,-82.5516 -220.0199,-80.7865 -0.7237,1.0268 -43.2091,57.4419 -94.4121,125.3669 -51.2029,67.925 -92.9144,124.0031 -92.6922,124.6181 0.2222,0.6149 43.4875,53.8612 96.1452,118.325 68.8875,84.3325 96.1874,117.072 97.332,116.7261 0.8749,-0.2645 41.6408,-19.2393 90.5908,-42.1663 z m 1268.6331,-57.1256 c 44.7518,-54.7924 86.7201,-106.2049 93.2629,-114.25 6.5429,-8.045 12.5135,-15.3467 13.268,-16.2259 1.2021,-1.4007 -0.1467,-3.5873 -10.896,-17.6635 -6.7474,-8.8358 -50.068,-65.6078 -96.268,-126.1601 -68.1926,-89.3771 -84.3764,-110.0279 -86,-109.7377 -1.1,0.1966 -98.0218,36.6662 -215.3818,81.0436 -117.36,44.3773 -213.5039,80.5578 -213.6531,80.4012 -0.1491,-0.1567 -0.9964,-1.8599 -1.8828,-3.7849 -0.8864,-1.925 -1.3698,-2.6489 -1.0742,-1.6088 1.8167,6.3921 5.5272,27.7661 6.4289,37.0325 2.7052,27.7993 -0.7387,58.8727 -9.3673,84.5209 -3.5609,10.5843 -4.2978,14.8688 -1.1314,6.5777 0.9499,-2.4873 2.2268,-4.5223 2.8376,-4.5223 0.6108,0 20.486,9.0563 44.1673,20.1251 52.3816,24.4835 288.2246,134.7731 349.0568,163.2328 24.2,11.3217 44.2849,20.5978 44.6331,20.6135 0.3482,0.016 37.2482,-44.8016 82,-99.5941 z m 238.9529,-292.3773 c 51.8729,-63.525 113.1864,-138.675 136.2525,-167 23.066,-28.325 42.2961,-51.8977 42.7337,-52.3838 0.4375,-0.4862 3.4128,1.2954 6.6116,3.959 4.6183,3.8455 3.7468,2.6888 -4.2312,-5.6161 -15.8328,-16.4816 -26.4188,-31.0734 -35.8486,-49.4135 -4.7903,-9.3167 -5.7515,-10.454 -2.9788,-3.5243 0.8938,2.2339 1.4563,4.2191 1.25,4.4115 -0.3656,0.341 -184.2175,69.909 -339.8752,128.606 -42.625,16.0735 -77.8248,29.5125 -78.2217,29.8646 -0.397,0.352 3.2214,5.8053 8.0408,12.1183 4.8193,6.3131 44.4693,58.2054 88.1109,115.3163 l 79.3485,103.838 2.2467,-2.338 c 1.2356,-1.2859 44.688,-54.313 96.5608,-117.838 z m -1739.086,2.3379 c 47.025,-62.4836 85.8263,-114.161 86.225,-114.8387 0.5227,-0.8884 -23.34,-10.3212 -85.5,-33.798 -217.7529,-82.2414 -325.2548,-122.9391 -325.6002,-123.2646 -0.2063,-0.1945 0.3562,-2.1814 1.25,-4.4153 2.7727,-6.9297 1.8115,-5.7924 -2.9788,3.5243 -9.3233,18.1331 -20.0153,32.9225 -35.3507,48.8983 -7.2305,7.5324 -8.258,8.8924 -4.2371,5.6081 2.9378,-2.3995 5.6606,-3.9374 6.0975,-3.4438 1.0312,1.1652 232.0332,284.195 255.5373,313.0912 9.9314,12.2097 18.282,22.2097 18.557,22.2222 0.275,0.012 38.975,-51.1002 86,-113.5837 z m 604.932,1.1621 c 10.6691,-15.6688 29.1463,-35.4457 44.568,-47.7028 26.5546,-21.1055 59.8071,-35.7209 95.5,-41.9749 18.0229,-3.158 49.0456,-3.1666 67.5,-0.019 37.601,6.4137 69.6656,20.727 98.629,44.0268 20.3345,16.3583 36.8959,36.1115 51.7046,61.6696 3.5055,6.05 6.0509,10.1 5.6566,9 -0.3944,-1.1 -0.9188,-2.6931 -1.1654,-3.5402 -0.3511,-1.2063 6.7722,-4.2684 32.8634,-14.1267 18.3215,-6.9226 111.6118,-42.1684 207.3118,-78.324 95.7,-36.1556 174.3106,-66.0236 174.6902,-66.3733 0.3796,-0.3497 -3.4596,-6.0358 -8.5314,-12.6358 -5.0719,-6.6 -20.2056,-26.4 -33.6304,-44 -39.6061,-51.9237 -239.7151,-313.8205 -260.5498,-341 -78.7667,-102.7532 -201.4786,-263.6671 -201.4786,-264.2016 0,-0.3588 1.4625,-1.9636 3.25,-3.5662 l 3.25,-2.9138 -3.5,2.1151 c -25.7092,15.5361 -52.3845,25.2936 -80.7434,29.5348 -13.4658,2.0139 -47.0326,2.0247 -61.1396,0.02 -25.7841,-3.6648 -50.3139,-12.1365 -75.117,-25.9426 -5.3362,-2.9702 -6.0026,-3.1682 -3.722,-1.1054 l 2.7779,2.5126 -54.8488,72.7739 c -56.2806,74.6734 -227.7072,302.2747 -363.0301,481.991 -41.918,55.6694 -76.434,101.7944 -76.7022,102.5 -0.3283,0.8637 3.0273,2.6176 10.2688,5.3674 5.916,2.2464 101.1227,38.2244 211.5705,79.951 160.0352,60.4605 200.7225,76.1811 200.3634,77.4155 -0.2478,0.852 -0.7733,2.449 -1.1677,3.549 -0.3943,1.1 2.1483,-2.95 5.6503,-9 3.502,-6.05 7.8994,-13.25 9.7719,-16 z m 887.2388,-178.5905 c 32.0811,-12.1498 124.9292,-47.2126 206.3292,-77.9174 81.4,-30.7047 152.2274,-57.449 157.3943,-59.4318 5.1669,-1.9827 9.5108,-3.4824 9.6531,-3.3326 0.1423,0.1497 0.9839,1.8473 1.8703,3.7723 0.8864,1.925 1.3713,2.653 1.0776,1.6178 -2.4587,-8.6662 -5.7238,-28.808 -6.7059,-41.3678 -2.0656,-26.4175 1.4838,-55.9399 9.6418,-80.1946 3.6952,-10.9863 4.1482,-13.9874 1.0288,-6.8156 -1.0192,2.3431 -1.9462,4.4043 -2.06,4.5804 -0.2607,0.4032 -14.7186,-6.3367 -166.9,-77.8037 -68.2,-32.0279 -178.9,-84.01 -246,-115.5158 -67.1,-31.5058 -200.3,-94.0603 -296,-139.01 -95.7,-44.9497 -182.6405,-85.7848 -193.201,-90.7446 l -19.201,-9.0178 1.951,-3.8243 c 3.6747,-7.2031 1.9458,-5.2518 -5.9082,6.6682 -9.3836,14.2414 -21.2717,28.5908 -31.8872,38.4892 -6.1637,5.7474 -6.6503,6.3798 -2.373,3.0842 2.9594,-2.2801 5.6594,-4.1264 6,-4.103 0.3407,0.023 2.2265,2.1609 4.1908,4.75 9.2117,12.1418 246.2735,322.4906 454.8426,595.4557 30.5723,40.0116 56.1129,72.7491 56.7568,72.75 0.644,9e-4 27.419,-9.939 59.5,-22.0888 z M 1893.4047,2716.135 c 58.5561,-77.825 145.7795,-193.7 193.8297,-257.5 48.0502,-63.8 112.7602,-149.75 143.8,-191 31.0398,-41.25 57.2723,-75.8764 58.2944,-76.9475 1.8414,-1.9297 1.8792,-1.9293 4.1331,0.047 6.5588,5.7523 5.1129,3.8203 -3.96,-5.2913 -11.6631,-11.7129 -20.0856,-21.9926 -28.5196,-34.8086 -6.9409,-10.547 -7.5428,-11.2761 -5.1513,-6.24 1.1048,2.3265 1.4272,4.1009 0.8456,4.6541 -0.517,0.4917 -24.565,12.1316 -53.44,25.8663 -55.8886,26.5842 -223.6602,106.5294 -384,182.9809 -53.625,25.5689 -154.425,73.6054 -224,106.7477 -69.575,33.1424 -152.1038,72.4698 -183.3973,87.3943 -31.2936,14.9245 -56.9996,27.0142 -57.1245,26.866 -0.125,-0.1481 -1.2101,-2.0693 -2.4114,-4.2693 -1.2014,-2.2 -1.8931,-3.1 -1.5373,-2 0.3559,1.1 1.9702,6.0174 3.5873,10.9275 7.6342,23.1798 11.0974,53.1979 9.0938,78.8225 -0.9821,12.5598 -4.2472,32.7016 -6.7059,41.3678 -0.2937,1.0352 0.1912,0.3072 1.0776,-1.6178 0.8864,-1.925 1.7284,-3.6229 1.8712,-3.7732 0.1428,-0.1503 22.9367,8.3292 50.6531,18.8433 27.7163,10.514 115.4184,43.6512 194.8934,73.6381 79.475,29.9869 152.6,57.584 162.5,61.3269 9.9,3.7429 18.2705,6.5037 18.6012,6.1351 0.3306,-0.3686 48.5107,-64.3452 107.0669,-142.1702 z M 810.23656,3862.3725 c -8.6325,-3.3331 -16.01054,-13.7885 -15.99442,-22.6656 0.009,-4.7307 1.89964,-10.6892 4.69613,-14.7971 1.48676,-2.184 11.25048,-10.2518 23.59907,-19.5 l 21.06309,-15.7748 -198.68193,-0.2525 -198.68194,-0.2524 v -24.9951 -24.9951 l 198.68194,-0.2524 198.68193,-0.2525 -20.94901,-15.6893 c -11.52196,-8.6291 -21.92675,-17.0118 -23.12176,-18.6281 -3.24888,-4.3944 -5.62011,-12.589 -5.06581,-17.5068 1.94997,-17.3001 20.78779,-27.6034 35.98523,-19.682 7.1952,3.7503 107.23499,79.7291 109.49855,83.1625 3.49766,5.3054 4.86251,12.8469 3.44017,19.0089 -0.65575,2.8408 -2.1476,6.7109 -3.31523,8.6001 -1.40364,2.2712 -19.70626,16.6276 -54.01699,42.3705 -28.54171,21.4145 -53.67073,39.8615 -55.84226,40.9933 -5.41487,2.8224 -14.26589,3.3135 -19.97676,1.1084 z m 0,-1092 c -8.6325,-3.3331 -16.01054,-13.7885 -15.99442,-22.6656 0.009,-4.7307 1.89964,-10.6892 4.69613,-14.7971 1.48676,-2.184 11.25048,-10.2518 23.59907,-19.5 l 21.06309,-15.7748 -198.68193,-0.2525 -198.68194,-0.2524 v -24.9951 -24.9951 l 198.68194,-0.2524 198.68193,-0.2525 -20.94901,-15.6893 c -11.52196,-8.6291 -21.92675,-17.0118 -23.12176,-18.6281 -3.24888,-4.3944 -5.62011,-12.589 -5.06581,-17.5068 1.94997,-17.3001 20.78779,-27.6034 35.98523,-19.682 7.1952,3.7503 107.23499,79.7291 109.49855,83.1625 3.49766,5.3054 4.86251,12.8469 3.44017,19.0089 -0.65575,2.8408 -2.1476,6.7109 -3.31523,8.6001 -1.40364,2.2712 -19.70626,16.6276 -54.01699,42.3705 -28.54171,21.4145 -53.67073,39.8615 -55.84226,40.9933 -5.41487,2.8224 -14.26589,3.3135 -19.97676,1.1084 z" fill="#000000"/></g><text x="0" y="2626.5002" fill="#000000" font-size="5px" font-weight="bold" font-family="'Helvetica Neue', Helvetica, Arial-Unicode, Arial, Sans-serif">Created by Lucas Rathgeb</text><text x="0" y="2631.5002" fill="#000000" font-size="5px" font-weight="bold" font-family="'Helvetica Neue', Helvetica, Arial-Unicode, Arial, Sans-serif">from the Noun Project</text></svg>